<svg height="512pt" viewBox="0 0 512 512" width="512pt" xmlns="http://www.w3.org/2000/svg"><path d="m479.5625 170.976562 32.273438-32.269531-138.542969-138.542969-32.269531 32.273438-32.4375-32.4375-308.585938 308.585938 32.4375 32.4375-32.273438 32.269531 138.542969 138.542969 32.269531-32.273438 32.4375 32.4375 308.585938-308.585938zm-276.148438 298.519532-32.4375-32.433594-32.269531 32.269531-96.039062-96.039062 32.269531-32.269531-32.4375-32.4375 266.085938-266.082032 32.4375 32.433594 32.269531-32.269531 96.039062 96.039062-32.269531 32.269531 32.433594 32.4375zm0 0"/><path d="m325.21875 129.554688 16.710938 16.710937h-25.789063v28.34375l-.039063.039063-17.988281-17.988282-21.25 21.25 17.988281 17.988282-21.234374 21.234374c-5.464844-2.480468-11.4375-3.796874-17.617188-3.796874-11.394531 0-22.109375 4.4375-30.167969 12.496093-8.058593 8.058594-12.496093 18.773438-12.496093 30.167969 0 6.179688 1.316406 12.15625 3.796874 17.617188l-21.234374 21.234374-17.988282-17.988281-21.25 21.25 17.988282 17.988281-.039063.039063h-28.34375v25.789063l-16.710937-16.710938-21.25 21.25 57.226562 57.230469 21.25-21.253907-16.710938-16.710937h25.789063v-28.34375l.039063-.039063 17.988281 17.988282 21.25-21.25-17.988281-17.988282 21.246093-21.246093c5.578125 2.519531 11.589844 3.789062 17.605469 3.789062 10.925781 0 21.847656-4.160156 30.164062-12.476562 8.058594-8.058594 12.496094-18.773438 12.496094-30.167969 0-6.179688-1.3125-12.152344-3.792968-17.617188l21.234374-21.234374 17.988282 17.988281 21.25-21.25-17.988282-17.988281.039063-.039063h28.34375v-25.789063l16.710937 16.710938 21.25-21.25-57.230468-57.230469zm-60.300781 135.363281c-4.917969 4.914062-12.917969 4.914062-17.832031 0-2.382813-2.382813-3.695313-5.550781-3.695313-8.917969s1.3125-6.535156 3.695313-8.917969c2.378906-2.382812 5.546874-3.691406 8.914062-3.691406s6.535156 1.308594 8.917969 3.691406c2.382812 2.382813 3.691406 5.550781 3.691406 8.917969s-1.3125 6.535156-3.691406 8.917969zm0 0"/></svg>