<svg height="511pt" viewBox="-17 0 511 511.9521" width="511pt" xmlns="http://www.w3.org/2000/svg"><path d="m399.707031 39.207031c-65.472656-52.363281-149.867187-52.269531-210.027343.238281-12.554688 10.949219-24.628907 15.164063-35.859376 12.484376-26.308593-6.230469-42.878906-46.167969-43.042968-46.566407-1.277344-3.136719-4.292969-5.222656-7.679688-5.3085935-3.394531-.1445313-6.539062 1.7929685-7.945312 4.8906245-22.183594 47.1875-31.75 86.183594-28.730469 116.410157-4.46875-2.464844-8.691406-5.34375-12.621094-8.601563-8.550781-7.117187-15.695312-15.765625-21.066406-25.503906 1.269531-4.542969-1.382813-9.253906-5.921875-10.523438-4.542969-1.269531-9.253906 1.382813-10.523438 5.921876-53.070312 156.84375 44.363282 255.316406 45.355469 256.273437 2.558594 2.546875 6.445313 3.207031 9.699219 1.648437 3.257812-1.554687 5.183594-4.996093 4.808594-8.585937-9.140625-90.324219 35.265625-127.921875 57.589844-140.929687 21.125 3.734374 42.738281 3.734374 63.863281 0 66.558593-18.492188 122.214843-13.898438 165.546875 13.65625 67.601562 43.03125 82.621094 128.664062 82.773437 129.527343.644531 3.941407 3.9375 6.910157 7.925781 7.140625h.4375c3.84375-.003906 7.214844-2.578125 8.226563-6.289062 34.429687-126.164063 10.972656-236.773438-62.808594-295.882813zm-296.308593-10.941406c8.875 14.839844 24.566406 35.054687 46.429687 40.261719 16.945313 4.027344 34.132813-1.425782 51.078125-16.214844 53.691406-46.898438 129.332031-46.804688 188.136719.214844 34.59375 28.921875 57.933593 69.070312 65.953125 113.441406-37.546875-53.308594-107.28125-107.988281-226.484375-65.640625-40.277344 17.410156-97.152344 41.941406-143.5625 28.84375-5.726563-24.644531.398437-58.460937 18.449219-100.90625zm350.234374 270.0625c-11.09375-31.460937-34.597656-78.171875-81.230468-107.921875-47.589844-30.359375-107.945313-35.667969-178.730469-15.957031-19.734375 3.34375-39.914063 3.101562-59.5625-.714844-.417969-.035156-.835937-.035156-1.253906 0-.597657-.070313-1.199219-.070313-1.792969 0-.566406.109375-1.121094.277344-1.65625.503906-.425781.097657-.84375.226563-1.253906.382813-22.09375 12.007812-69.929688 47.828125-70.324219 132.777344-22.253906-31.75-57.171875-100.929688-31.570313-198.535157 5.007813 6.125 10.542969 11.804688 16.535157 16.972657 57.464843 48.589843 138.726562 13.464843 192-9.574219 124.75-44.332031 190.976562 24.421875 224.5625 89.890625.320312.523437.699219 1.003906 1.136719 1.433594 1.507812 30.414062-.796876 60.898437-6.859376 90.742187zm0 0"/><path d="m260.574219 484.355469c64.519531 55.464843 140.269531 14.507812 172.203125-15.972657l.152344-.148437c2.988281-2.921875 3.421874-7.578125 1.019531-11-2.398438-3.421875-6.921875-4.601563-10.6875-2.789063-5.5-.425781-10.945313-1.382812-16.257813-2.867187l-1.089844-.265625c-7-1.496094-13.695312-4.160156-19.808593-7.882812-10.75-7.738282-19.121094-18.335938-24.164063-30.582032l-2.398437-5.011718c-6.382813-13.53125-14.335938-30.359376-30.457031-37.324219-12.703126-5.292969-27.113282-4.601563-39.253907 1.886719-11.785156 6.058593-21.789062 15.09375-29.011719 26.207031-2.046874-2.847657-4.460937-5.851563-7.246093-9.019531-11.703125-13.601563-28.710938-21.480469-46.648438-21.617188-12.429687.203125-24.074219 6.113281-31.574219 16.027344-4.875 6.753906-8.890624 14.09375-11.949218 21.84375-1.109375 2.492187-2.207032 4.984375-3.410156 7.433594-11.582032 25.679687-37.683594 41.667968-65.820313 40.320312-3.484375-.003906-6.621094 2.109375-7.921875 5.339844-1.304688 3.230468-.511719 6.929687 2 9.34375.65625.625 46.242188 43.675781 101.648438 43.675781 26.160156-.148437 51.339843-9.980469 70.675781-27.597656zm-144.914063-15.828125c26.511719-5.292969 48.792969-23.144532 59.734375-47.863282 1.261719-2.621093 2.449219-5.285156 3.625-7.945312 2.539063-6.464844 5.84375-12.601562 9.847657-18.277344 4.398437-5.886718 11.292968-9.378906 18.636718-9.449218 12.832032.40625 24.914063 6.148437 33.332032 15.839843 4.804687 4.941407 8.660156 10.726563 11.375 17.066407-.78125 4.507812 2.128906 8.828124 6.601562 9.796874 4.46875.96875 8.910156-1.761718 10.0625-6.1875 4.636719-14.59375 14.890625-26.742187 28.503906-33.757812 7.65625-4.289062 16.851563-4.859375 24.984375-1.554688 10.238281 4.414063 16.359375 17.441407 21.792969 28.945313l2.5 5.230469c6.402344 15.082031 16.90625 28.066406 30.320312 37.472656 7.742188 4.761719 16.238282 8.183594 25.121094 10.117188l.980469.230468 2.203125.515625c-27.496094 19.421875-85.929688 48.878907-138.753906-2.015625-3.304688-3.1875-8.539063-3.1875-11.84375 0-53.117188 51.140625-111.683594 21.308594-139.023438 1.835938zm0 0"/></svg>